<svg xmlns="http://www.w3.org/2000/svg" xmlns:xlink="http://www.w3.org/1999/xlink" width="1080" zoomAndPan="magnify" viewBox="0 0 810 809.999993" height="1080" preserveAspectRatio="xMidYMid meet" version="1.0"><defs><clipPath id="de68670f06"><path d="M 54.566406 186.089844 L 578.949219 186.089844 L 578.949219 709.832031 L 54.566406 709.832031 Z M 54.566406 186.089844 " clip-rule="nonzero"/></clipPath><clipPath id="a318f446e1"><path d="M 457.523438 21.714844 L 791.054688 21.714844 L 791.054688 355 L 457.523438 355 Z M 457.523438 21.714844 " clip-rule="nonzero"/></clipPath><clipPath id="b8402a2cb3"><path d="M 108 578 L 189 578 L 189 712 L 108 712 Z M 108 578 " clip-rule="nonzero"/></clipPath><clipPath id="bb156c7b9b"><path d="M 59.851562 772.324219 L -7.199219 644.039062 L 133.710938 570.386719 L 200.765625 698.667969 Z M 59.851562 772.324219 " clip-rule="nonzero"/></clipPath><clipPath id="abbfb1feb1"><path d="M 59.851562 772.324219 L -7.199219 644.039062 L 133.710938 570.386719 L 200.765625 698.667969 Z M 59.851562 772.324219 " clip-rule="nonzero"/></clipPath><clipPath id="5f4761c384"><path d="M 59.851562 772.324219 L -7.199219 644.039062 L 133.710938 570.386719 L 200.765625 698.667969 Z M 59.851562 772.324219 " clip-rule="nonzero"/></clipPath><clipPath id="a8feeb195c"><path d="M 104 583 L 180 583 L 180 713 L 104 713 Z M 104 583 " clip-rule="nonzero"/></clipPath><clipPath id="cfc29b8874"><path d="M 59.851562 772.324219 L -7.199219 644.039062 L 133.710938 570.386719 L 200.765625 698.667969 Z M 59.851562 772.324219 " clip-rule="nonzero"/></clipPath><clipPath id="c8b978e42f"><path d="M 59.851562 772.324219 L -7.199219 644.039062 L 133.710938 570.386719 L 200.765625 698.667969 Z M 59.851562 772.324219 " clip-rule="nonzero"/></clipPath><clipPath id="966bc17309"><path d="M 59.851562 772.324219 L -7.199219 644.039062 L 133.710938 570.386719 L 200.765625 698.667969 Z M 59.851562 772.324219 " clip-rule="nonzero"/></clipPath><clipPath id="d919c35ef0"><path d="M 21 598 L 169 598 L 169 725 L 21 725 Z M 21 598 " clip-rule="nonzero"/></clipPath><clipPath id="6cbe7fa57b"><path d="M 59.851562 772.324219 L -7.199219 644.039062 L 133.710938 570.386719 L 200.765625 698.667969 Z M 59.851562 772.324219 " clip-rule="nonzero"/></clipPath><clipPath id="2c613f5317"><path d="M 59.851562 772.324219 L -7.199219 644.039062 L 133.710938 570.386719 L 200.765625 698.667969 Z M 59.851562 772.324219 " clip-rule="nonzero"/></clipPath><clipPath id="3e3fc1ec76"><path d="M 59.851562 772.324219 L -7.199219 644.039062 L 133.710938 570.386719 L 200.765625 698.667969 Z M 59.851562 772.324219 " clip-rule="nonzero"/></clipPath><clipPath id="c6a3e7e062"><path d="M 20 687 L 42 687 L 42 725 L 20 725 Z M 20 687 " clip-rule="nonzero"/></clipPath><clipPath id="0ae45d18bd"><path d="M 59.851562 772.324219 L -7.199219 644.039062 L 133.710938 570.386719 L 200.765625 698.667969 Z M 59.851562 772.324219 " clip-rule="nonzero"/></clipPath><clipPath id="da8f6040c5"><path d="M 59.851562 772.324219 L -7.199219 644.039062 L 133.710938 570.386719 L 200.765625 698.667969 Z M 59.851562 772.324219 " clip-rule="nonzero"/></clipPath><clipPath id="ed1e5c384a"><path d="M 59.851562 772.324219 L -7.199219 644.039062 L 133.710938 570.386719 L 200.765625 698.667969 Z M 59.851562 772.324219 " clip-rule="nonzero"/></clipPath><clipPath id="d1ed914926"><path d="M 47 650 L 93 650 L 93 718 L 47 718 Z M 47 650 " clip-rule="nonzero"/></clipPath><clipPath id="5816df3679"><path d="M 59.851562 772.324219 L -7.199219 644.039062 L 133.710938 570.386719 L 200.765625 698.667969 Z M 59.851562 772.324219 " clip-rule="nonzero"/></clipPath><clipPath id="ed323e0d5d"><path d="M 59.851562 772.324219 L -7.199219 644.039062 L 133.710938 570.386719 L 200.765625 698.667969 Z M 59.851562 772.324219 " clip-rule="nonzero"/></clipPath><clipPath id="1a5ac050cb"><path d="M 59.851562 772.324219 L -7.199219 644.039062 L 133.710938 570.386719 L 200.765625 698.667969 Z M 59.851562 772.324219 " clip-rule="nonzero"/></clipPath><clipPath id="ba4326dd59"><path d="M 78 618 L 138 618 L 138 709 L 78 709 Z M 78 618 " clip-rule="nonzero"/></clipPath><clipPath id="d95d79f468"><path d="M 59.851562 772.324219 L -7.199219 644.039062 L 133.710938 570.386719 L 200.765625 698.667969 Z M 59.851562 772.324219 " clip-rule="nonzero"/></clipPath><clipPath id="f0694bcbbc"><path d="M 59.851562 772.324219 L -7.199219 644.039062 L 133.710938 570.386719 L 200.765625 698.667969 Z M 59.851562 772.324219 " clip-rule="nonzero"/></clipPath><clipPath id="15f4bab5cb"><path d="M 59.851562 772.324219 L -7.199219 644.039062 L 133.710938 570.386719 L 200.765625 698.667969 Z M 59.851562 772.324219 " clip-rule="nonzero"/></clipPath><clipPath id="389f0d45b5"><path d="M 595.589844 701 L 774.839844 701 L 774.839844 746.09375 L 595.589844 746.09375 Z M 595.589844 701 " clip-rule="nonzero"/></clipPath><clipPath id="3ecd28ddca"><path d="M 595.589844 688 L 774.839844 688 L 774.839844 734 L 595.589844 734 Z M 595.589844 688 " clip-rule="nonzero"/></clipPath><clipPath id="759303665d"><path d="M 659 548.84375 L 711 548.84375 L 711 562 L 659 562 Z M 659 548.84375 " clip-rule="nonzero"/></clipPath><clipPath id="cb72e6aa5f"><path d="M 19.164062 239 L 136.914062 239 L 136.914062 269.011719 L 19.164062 269.011719 Z M 19.164062 239 " clip-rule="nonzero"/></clipPath><clipPath id="427c53a0d0"><path d="M 19.164062 231 L 136.914062 231 L 136.914062 261 L 19.164062 261 Z M 19.164062 231 " clip-rule="nonzero"/></clipPath><clipPath id="f58e990537"><path d="M 61 139.261719 L 95 139.261719 L 95 148 L 61 148 Z M 61 139.261719 " clip-rule="nonzero"/></clipPath></defs><g clip-path="url(#de68670f06)"><path fill="#3e5690" d="M 434.972656 508.507812 C 401.5625 573.964844 321.402344 599.949219 255.929688 566.542969 C 190.457031 533.136719 164.472656 452.992188 197.882812 387.535156 C 231.296875 322.074219 311.457031 296.09375 376.925781 329.5 C 442.398438 362.902344 468.386719 443.046875 434.972656 508.507812 Z M 577.226562 386.402344 L 563.777344 344.929688 C 560.0625 333.476562 547.765625 327.203125 536.308594 330.917969 L 502.640625 341.832031 C 489.527344 318.796875 472.097656 298.011719 450.707031 280.871094 L 466.769531 249.402344 C 472.238281 238.679688 467.984375 225.546875 457.257812 220.074219 L 437.835938 210.167969 L 418.417969 200.257812 C 407.691406 194.785156 394.5625 199.042969 389.085938 209.761719 L 373.023438 241.234375 C 346.59375 233.972656 319.523438 232.050781 293.179688 234.953125 L 282.261719 201.289062 C 278.546875 189.835938 266.253906 183.5625 254.796875 187.277344 L 213.3125 200.722656 C 201.859375 204.4375 195.582031 216.730469 199.296875 228.183594 L 210.214844 261.84375 C 187.179688 274.953125 166.386719 292.386719 149.242188 313.769531 L 117.769531 297.714844 C 107.046875 292.242188 93.914062 296.496094 88.4375 307.21875 L 68.617188 346.050781 C 63.144531 356.777344 67.402344 369.902344 78.125 375.375 L 109.601562 391.4375 C 102.339844 417.863281 100.417969 444.921875 103.320312 471.265625 L 69.652344 482.179688 C 58.195312 485.890625 51.921875 498.183594 55.636719 509.636719 L 69.085938 551.113281 C 72.792969 562.5625 85.09375 568.839844 96.546875 565.128906 L 130.214844 554.214844 C 130.214844 554.214844 130.214844 554.207031 130.214844 554.207031 C 143.324219 577.238281 160.765625 598.035156 182.152344 615.171875 L 166.089844 646.640625 C 160.617188 657.363281 164.875 670.496094 175.597656 675.964844 L 195.019531 685.875 L 214.4375 695.785156 C 225.167969 701.253906 238.296875 697 243.769531 686.273438 L 259.835938 654.808594 C 286.265625 662.066406 313.335938 663.984375 339.683594 661.089844 L 350.597656 694.75 C 354.308594 706.203125 366.605469 712.476562 378.0625 708.761719 L 419.542969 695.316406 C 430.996094 691.601562 437.269531 679.3125 433.558594 667.859375 L 422.640625 634.199219 C 445.679688 621.089844 466.472656 603.652344 483.609375 582.273438 L 515.085938 598.332031 C 525.8125 603.804688 538.945312 599.546875 544.417969 588.824219 L 564.238281 549.992188 C 569.714844 539.265625 565.457031 526.136719 554.734375 520.664062 L 523.253906 504.605469 C 530.515625 478.183594 532.441406 451.117188 529.539062 424.773438 L 563.207031 413.863281 C 574.664062 410.148438 580.9375 397.855469 577.226562 386.402344 " fill-opacity="1" fill-rule="nonzero"/></g><path fill="#253c74" d="M 434.972656 508.507812 C 401.5625 573.964844 321.402344 599.949219 255.929688 566.542969 C 190.457031 533.136719 164.472656 452.992188 197.882812 387.535156 C 231.296875 322.074219 311.457031 296.09375 376.925781 329.5 C 442.398438 362.902344 468.386719 443.046875 434.972656 508.507812 Z M 386.835938 310.082031 C 310.761719 271.265625 217.289062 301.566406 178.460938 377.625 C 139.640625 453.6875 169.945312 547.140625 246.019531 585.960938 C 322.097656 624.777344 415.574219 594.476562 454.394531 518.414062 C 493.21875 442.355469 462.914062 348.898438 386.835938 310.082031 " fill-opacity="1" fill-rule="nonzero"/><g clip-path="url(#a318f446e1)"><path fill="#f3c700" d="M 678.492188 250.9375 C 652.746094 273.160156 617.230469 276.707031 588.429688 262.820312 C 578.53125 258.046875 569.429688 251.230469 561.789062 242.382812 C 531.921875 207.804688 535.753906 155.5625 570.34375 125.703125 C 597.058594 102.640625 634.304688 99.699219 663.640625 115.476562 C 672.28125 120.128906 680.25 126.386719 687.046875 134.257812 C 716.910156 168.84375 713.078125 221.082031 678.492188 250.9375 Z M 778.488281 172.433594 L 756.539062 170.828125 C 754.394531 154.492188 749.230469 138.4375 740.933594 123.550781 L 757.5625 109.199219 C 763.226562 104.308594 763.855469 95.75 758.960938 90.082031 L 750.105469 79.828125 L 741.242188 69.566406 C 736.351562 63.90625 727.792969 63.273438 722.128906 68.167969 L 705.496094 82.519531 C 699.5 77.917969 693.167969 73.921875 686.613281 70.472656 C 678.394531 66.144531 669.816406 62.691406 660.996094 60.1875 L 662.609375 38.246094 C 663.152344 30.78125 657.546875 24.285156 650.078125 23.738281 L 623.039062 21.753906 C 615.574219 21.207031 609.078125 26.8125 608.527344 34.28125 L 606.917969 56.222656 C 590.582031 58.367188 574.523438 63.535156 559.636719 71.828125 L 545.28125 55.203125 C 540.386719 49.539062 531.828125 48.910156 526.160156 53.804688 L 505.640625 71.515625 C 499.976562 76.40625 499.347656 84.964844 504.242188 90.628906 L 518.597656 107.253906 C 508.21875 120.769531 500.765625 135.902344 496.257812 151.75 L 474.3125 150.136719 C 466.847656 149.589844 460.351562 155.199219 459.800781 162.664062 L 457.816406 189.699219 C 457.269531 197.164062 462.878906 203.65625 470.347656 204.207031 L 492.289062 205.816406 C 492.289062 205.816406 492.289062 205.816406 492.289062 205.808594 C 492.289062 205.816406 492.296875 205.816406 492.296875 205.816406 L 492.289062 205.816406 C 494.441406 222.148438 499.605469 238.207031 507.902344 253.089844 L 491.273438 267.441406 C 485.609375 272.335938 484.984375 280.894531 489.875 286.558594 L 498.730469 296.816406 L 507.589844 307.074219 C 512.480469 312.742188 521.039062 313.367188 526.710938 308.472656 L 543.335938 294.121094 C 550.316406 299.480469 557.734375 304.042969 565.453125 307.835938 C 572.679688 311.394531 580.171875 314.277344 587.839844 316.457031 L 586.230469 338.394531 C 585.683594 345.859375 591.292969 352.359375 598.761719 352.902344 L 625.796875 354.882812 C 633.261719 355.433594 639.761719 349.828125 640.308594 342.359375 L 641.914062 320.417969 C 658.25 318.273438 674.316406 313.105469 689.199219 304.8125 L 703.554688 321.4375 C 708.449219 327.101562 717.007812 327.730469 722.671875 322.839844 L 743.195312 305.125 C 748.863281 300.234375 749.488281 291.679688 744.59375 286.011719 L 730.238281 269.386719 C 740.617188 255.871094 748.070312 240.738281 752.578125 224.890625 L 774.523438 226.5 C 781.988281 227.050781 788.484375 221.441406 789.03125 213.976562 L 791.015625 186.945312 C 791.5625 179.480469 785.953125 172.984375 778.488281 172.433594 " fill-opacity="1" fill-rule="nonzero"/></g><path fill="#e59f00" d="M 678.492188 250.9375 C 652.746094 273.160156 617.230469 276.707031 588.429688 262.820312 C 578.53125 258.046875 569.429688 251.230469 561.789062 242.382812 C 531.921875 207.804688 535.753906 155.5625 570.34375 125.703125 C 597.058594 102.640625 634.304688 99.699219 663.640625 115.476562 C 672.28125 120.128906 680.25 126.386719 687.046875 134.257812 C 716.910156 168.84375 713.078125 221.082031 678.492188 250.9375 Z M 697.308594 125.402344 C 689.332031 116.164062 679.964844 108.847656 669.789062 103.425781 C 635.6875 85.257812 592.441406 88.722656 561.488281 115.445312 C 521.296875 150.136719 516.824219 211.054688 551.527344 251.238281 C 560.339844 261.445312 570.851562 269.335938 582.277344 274.878906 C 615.84375 291.15625 657.363281 287.078125 687.351562 261.199219 C 727.539062 226.503906 732.007812 165.585938 697.308594 125.402344 " fill-opacity="1" fill-rule="nonzero"/><g clip-path="url(#b8402a2cb3)"><g clip-path="url(#bb156c7b9b)"><g clip-path="url(#abbfb1feb1)"><g clip-path="url(#5f4761c384)"><path fill="#c66b1e" d="M 114.277344 585.378906 C 112.753906 597.507812 120.703125 623.46875 135.230469 651.257812 C 149.753906 679.042969 166.535156 700.394531 177.363281 706.070312 L 175.527344 711.847656 L 184.765625 707.015625 C 193.613281 702.390625 185.777344 669.933594 167.265625 634.515625 C 148.753906 599.097656 126.574219 574.136719 117.726562 578.761719 L 108.488281 583.589844 L 114.277344 585.378906 " fill-opacity="1" fill-rule="nonzero"/></g></g></g></g><g clip-path="url(#a8feeb195c)"><g clip-path="url(#cfc29b8874)"><g clip-path="url(#c8b978e42f)"><g clip-path="url(#966bc17309)"><path fill="#ed8125" d="M 108.488281 583.589844 C 117.335938 578.964844 139.515625 603.925781 158.027344 639.34375 C 176.539062 674.761719 184.375 707.21875 175.523438 711.84375 C 166.679688 716.46875 144.503906 691.507812 125.988281 656.089844 C 107.476562 620.671875 99.640625 588.210938 108.488281 583.589844 " fill-opacity="1" fill-rule="nonzero"/></g></g></g></g><g clip-path="url(#d919c35ef0)"><g clip-path="url(#6cbe7fa57b)"><g clip-path="url(#2c613f5317)"><g clip-path="url(#3e3fc1ec76)"><path fill="#f69225" d="M 111.140625 600.269531 L 21.351562 687.480469 L 40.484375 724.082031 L 163.34375 700.140625 C 164.144531 700.191406 164.867188 700.054688 165.5 699.722656 C 172.464844 696.082031 166.296875 670.527344 151.722656 642.640625 C 137.144531 614.753906 119.683594 595.101562 112.71875 598.742188 C 112.085938 599.070312 111.558594 599.585938 111.136719 600.269531 " fill-opacity="1" fill-rule="nonzero"/></g></g></g></g><g clip-path="url(#c6a3e7e062)"><g clip-path="url(#0ae45d18bd)"><g clip-path="url(#da8f6040c5)"><g clip-path="url(#ed1e5c384a)"><path fill="#f9b623" d="M 21.351562 687.480469 C 23.875 686.160156 30.207031 693.285156 35.492188 703.390625 C 40.773438 713.5 43.007812 722.765625 40.484375 724.082031 C 37.960938 725.402344 31.628906 718.28125 26.347656 708.171875 C 21.0625 698.0625 18.828125 688.796875 21.351562 687.480469 " fill-opacity="1" fill-rule="nonzero"/></g></g></g></g><g clip-path="url(#d1ed914926)"><g clip-path="url(#5816df3679)"><g clip-path="url(#ed323e0d5d)"><g clip-path="url(#1a5ac050cb)"><path fill="#e2dedc" d="M 59.007812 650.910156 L 47.652344 661.933594 C 53.074219 667.832031 59.355469 677.039062 65.054688 687.941406 C 70.75 698.839844 74.726562 709.25 76.472656 717.070312 L 92.007812 714.046875 C 91.078125 706.015625 86.703125 693.488281 79.777344 680.242188 C 72.855469 666.996094 65.070312 656.25 59.007812 650.910156 " fill-opacity="1" fill-rule="nonzero"/></g></g></g></g><g clip-path="url(#ba4326dd59)"><g clip-path="url(#d95d79f468)"><g clip-path="url(#f0694bcbbc)"><g clip-path="url(#15f4bab5cb)"><path fill="#e2dedc" d="M 92.070312 618.789062 L 78.308594 632.15625 C 85.738281 639.121094 95.007812 652.109375 103.289062 667.953125 C 111.570312 683.800781 116.945312 698.824219 118.421875 708.902344 L 137.25 705.226562 C 137.644531 695.867188 131.851562 677.703125 121.722656 658.320312 C 111.589844 638.9375 99.984375 623.8125 92.070312 618.789062 " fill-opacity="1" fill-rule="nonzero"/></g></g></g></g><g clip-path="url(#389f0d45b5)"><path fill="#c66b1e" d="M 769.535156 716.109375 C 757.097656 707.464844 724.046875 701.285156 685.214844 701.285156 C 646.390625 701.285156 613.332031 707.464844 600.894531 716.109375 L 595.605469 710.773438 L 595.605469 723.707031 C 595.605469 736.09375 635.726562 746.132812 685.214844 746.132812 C 734.703125 746.132812 774.820312 736.09375 774.820312 723.707031 L 774.820312 710.773438 L 769.535156 716.109375 " fill-opacity="1" fill-rule="nonzero"/></g><g clip-path="url(#3ecd28ddca)"><path fill="#ed8125" d="M 774.820312 710.773438 C 774.820312 723.160156 734.703125 733.199219 685.214844 733.199219 C 635.726562 733.199219 595.609375 723.160156 595.609375 710.773438 C 595.605469 698.390625 635.726562 688.351562 685.214844 688.351562 C 734.703125 688.351562 774.820312 698.390625 774.820312 710.773438 " fill-opacity="1" fill-rule="nonzero"/></g><path fill="#f69225" d="M 754.996094 704.101562 L 710.789062 555.269531 L 659.640625 555.269531 L 615.441406 704.105469 C 614.925781 704.953125 614.664062 705.828125 614.664062 706.71875 C 614.664062 716.46875 646.25 724.371094 685.214844 724.371094 C 724.179688 724.371094 755.765625 716.46875 755.765625 706.71875 C 755.765625 705.828125 755.503906 704.953125 754.996094 704.097656 " fill-opacity="1" fill-rule="nonzero"/><g clip-path="url(#759303665d)"><path fill="#f9b623" d="M 710.789062 555.269531 C 710.789062 558.804688 699.339844 561.671875 685.214844 561.671875 C 671.089844 561.671875 659.640625 558.804688 659.640625 555.269531 C 659.640625 551.738281 671.089844 548.871094 685.214844 548.871094 C 699.339844 548.871094 710.789062 551.738281 710.789062 555.269531 " fill-opacity="1" fill-rule="nonzero"/></g><path fill="#e2dedc" d="M 729.324219 617.683594 L 723.738281 598.867188 C 714.152344 601.4375 700.445312 603.054688 685.214844 603.054688 C 669.984375 603.054688 656.277344 601.4375 646.691406 598.867188 L 641.097656 617.683594 C 650.445312 621.28125 666.707031 623.664062 685.214844 623.664062 C 703.722656 623.664062 719.984375 621.28125 729.324219 617.683594 " fill-opacity="1" fill-rule="nonzero"/><path fill="#e2dedc" d="M 745.609375 672.492188 L 738.832031 649.679688 C 726.925781 653.847656 707.355469 656.574219 685.214844 656.574219 C 663.074219 656.574219 643.503906 653.847656 631.597656 649.679688 L 624.828125 672.492188 C 634.875 678.304688 658.128906 682.378906 685.214844 682.378906 C 712.300781 682.378906 735.554688 678.304688 745.609375 672.492188 " fill-opacity="1" fill-rule="nonzero"/><g clip-path="url(#cb72e6aa5f)"><path fill="#c66b1e" d="M 133.429688 249.289062 C 125.257812 243.601562 103.546875 239.535156 78.039062 239.535156 C 52.535156 239.535156 30.820312 243.601562 22.648438 249.289062 L 19.175781 245.777344 L 19.175781 254.285156 C 19.175781 262.429688 45.527344 269.035156 78.039062 269.035156 C 110.550781 269.035156 136.902344 262.429688 136.902344 254.285156 L 136.902344 245.777344 L 133.429688 249.289062 " fill-opacity="1" fill-rule="nonzero"/></g><g clip-path="url(#427c53a0d0)"><path fill="#ed8125" d="M 136.902344 245.777344 C 136.902344 253.921875 110.550781 260.527344 78.039062 260.527344 C 45.527344 260.527344 19.175781 253.921875 19.175781 245.777344 C 19.175781 237.632812 45.527344 231.027344 78.039062 231.027344 C 110.550781 231.027344 136.902344 237.632812 136.902344 245.777344 " fill-opacity="1" fill-rule="nonzero"/></g><path fill="#f69225" d="M 123.878906 241.390625 L 94.839844 143.484375 L 61.238281 143.488281 L 32.203125 241.390625 C 31.867188 241.949219 31.691406 242.523438 31.691406 243.109375 C 31.691406 249.523438 52.441406 254.722656 78.039062 254.722656 C 103.636719 254.722656 124.386719 249.523438 124.386719 243.109375 C 124.386719 242.523438 124.210938 241.949219 123.878906 241.386719 " fill-opacity="1" fill-rule="nonzero"/><g clip-path="url(#f58e990537)"><path fill="#f9b623" d="M 94.839844 143.488281 C 94.839844 145.8125 87.316406 147.699219 78.039062 147.699219 C 68.761719 147.699219 61.238281 145.8125 61.238281 143.488281 C 61.238281 141.164062 68.761719 139.277344 78.039062 139.277344 C 87.316406 139.277344 94.839844 141.164062 94.839844 143.488281 " fill-opacity="1" fill-rule="nonzero"/></g><path fill="#e2dedc" d="M 107.015625 184.542969 L 103.34375 172.164062 C 97.046875 173.855469 88.042969 174.917969 78.039062 174.917969 C 68.035156 174.917969 59.03125 173.855469 52.734375 172.164062 L 49.058594 184.542969 C 55.199219 186.90625 65.878906 188.476562 78.039062 188.476562 C 90.199219 188.476562 100.878906 186.90625 107.015625 184.542969 " fill-opacity="1" fill-rule="nonzero"/><path fill="#e2dedc" d="M 117.710938 220.597656 L 113.261719 205.589844 C 105.441406 208.332031 92.585938 210.125 78.039062 210.125 C 63.496094 210.125 50.640625 208.332031 42.816406 205.589844 L 38.371094 220.597656 C 44.972656 224.421875 60.246094 227.097656 78.039062 227.097656 C 95.832031 227.097656 111.109375 224.421875 117.710938 220.597656 " fill-opacity="1" fill-rule="nonzero"/></svg>